<svg xmlns="http://www.w3.org/2000/svg" version="1.1" viewBox="213.84 213.19 573.56 526.11">
<path d="M0 0 C5.37260086 1.18379341 6.73213968 4.36904884 9.6875 8.8125 C12.40536389 13.08208423 15.02293632 17.40930074 17.625 21.75 C18.37724616 22.99761176 19.12985681 24.24500382 19.8828125 25.4921875 C22.15688911 29.26212374 24.4228888 33.03687267 26.6875 36.8125 C27.33992676 37.89934082 27.99235352 38.98618164 28.66455078 40.10595703 C31.11982928 44.19680606 33.57403495 48.28829284 36.02563477 52.38134766 C40.67825579 60.14529814 45.36268585 67.8895717 50.0625 75.625 C50.41733459 76.20914673 50.77216919 76.79329346 51.13775635 77.3951416 C54.69875597 83.25692415 58.26283319 89.11681961 61.83262634 94.97325134 C63.57710219 97.83561361 65.32018083 100.69882452 67.0625 103.5625 C67.57984207 104.41269211 67.57984207 104.41269211 68.1076355 105.28005981 C74.43946587 115.69302977 80.65918488 126.17095282 86.8656311 136.65899658 C91.43972796 144.38558082 96.03851894 152.08750675 100.84912109 159.66992188 C105.09800296 166.39746838 109.16475842 173.23495507 113.25 180.0625 C119.32078854 190.20804917 125.417787 200.33653516 131.5625 210.4375 C136.76707868 218.99444701 141.94892233 227.56419888 147.09130859 236.15869141 C151.42616349 243.39520909 155.80545807 250.6045117 160.1875 257.8125 C165.04301365 265.79929843 169.88822269 273.79172136 174.6875 281.8125 C179.38685875 289.66397656 184.12431122 297.49200823 188.875 305.3125 C189.23515198 305.90550903 189.59530396 306.49851807 189.96636963 307.10949707 C193.5890187 313.07405458 197.21406814 319.03713563 200.84622192 324.99591064 C202.58614988 327.85072952 204.32470764 330.7063807 206.0625 333.5625 C206.4071228 334.12884155 206.75174561 334.69518311 207.10681152 335.27868652 C213.43891385 345.69211595 219.65891298 356.17049335 225.8656311 366.65899658 C230.43972796 374.38558082 235.03851894 382.08750675 239.84912109 389.66992188 C244.50073558 397.03514261 248.94006831 404.52989503 253.41204834 412.00488281 C259.87484864 422.80723844 266.38595002 433.57895807 272.94165039 444.32519531 C274.86477265 447.48296443 276.77800974 450.64647236 278.6875 453.8125 C279.68825562 455.45726318 279.68825562 455.45726318 280.70922852 457.13525391 C281.66526978 458.73119385 281.66526978 458.73119385 282.640625 460.359375 C283.21329102 461.3090918 283.78595703 462.25880859 284.37597656 463.23730469 C286.19467304 466.80834163 286.45202252 468.90494044 285.6875 472.8125 C283.6875 474.8125 283.6875 474.8125 281.8171978 475.05859566 C280.66956553 475.05583028 280.66956553 475.05583028 279.49874878 475.05300903 C278.18201675 475.05713303 278.18201675 475.05713303 276.83868408 475.06134033 C275.87339783 475.05414978 274.90811157 475.04695923 273.91357422 475.03955078 C272.39157913 475.03998886 272.39157913 475.03998886 270.83883667 475.04043579 C267.47320101 475.03903852 264.10778466 475.0234586 260.7421875 475.0078125 C258.41334148 475.00408378 256.0844939 475.00123615 253.75564575 474.99923706 C247.61696057 474.99158949 241.47836957 474.97193134 235.33972168 474.9498291 C229.07935867 474.92939486 222.81898048 474.92024053 216.55859375 474.91015625 C204.26818772 474.88868652 191.97785168 474.85453703 179.6875 474.8125 C180.16582275 475.6281543 180.64414551 476.44380859 181.13696289 477.28417969 C182.94680459 480.3705418 184.75652245 483.45697646 186.56616211 486.54345703 C187.34280681 487.86802945 188.11949794 489.19257465 188.89624023 490.51708984 C189.27014893 491.15469238 189.64405762 491.79229492 190.02929688 492.44921875 C190.40246536 493.08536102 190.77563385 493.7215033 191.16011047 494.37692261 C191.91020073 495.65699281 192.65921435 496.9376945 193.40715027 498.21902466 C195.17925169 501.25326256 196.96351877 504.27788042 198.78833008 507.28076172 C199.42279053 508.33537598 200.05725098 509.38999023 200.7109375 510.4765625 C201.27345215 511.39904785 201.8359668 512.3215332 202.41552734 513.27197266 C204.33464826 517.10505754 204.38724094 519.61405434 203.6875 523.8125 C200.8771741 526.6228259 199.12449547 526.06313044 195.18442535 526.06418228 C194.50567901 526.06708916 193.82693267 526.06999604 193.12761825 526.07299101 C190.83063701 526.08034745 188.53391821 526.07332167 186.23693848 526.06646729 C184.58259141 526.06876949 182.92824535 526.0719444 181.27390146 526.07592177 C176.71022274 526.08431141 172.14662709 526.0801257 167.58294797 526.07394934 C162.66810099 526.0694428 157.75326877 526.07639963 152.83842468 526.08190918 C143.20327253 526.09082414 133.56815145 526.08887184 123.93299806 526.0830839 C116.10554204 526.07857566 108.27809476 526.07795086 100.45063782 526.08013153 C99.33856639 526.080438 98.22649495 526.08074446 97.08072439 526.08106022 C94.82190191 526.08169964 92.56307944 526.08234806 90.30425698 526.0830054 C69.1000872 526.08871485 47.89593469 526.08214117 26.69176775 526.07140467 C8.47923626 526.0624686 -9.73326975 526.06402047 -27.94580078 526.07324219 C-49.07168768 526.08393397 -70.19755943 526.08816547 -91.32344866 526.08201766 C-93.57417838 526.08138053 -95.8249081 526.08075179 -98.07563782 526.08013153 C-99.18317463 526.07982298 -100.29071145 526.07951443 -101.43180999 526.07919653 C-109.25407879 526.07746631 -117.07633803 526.08039172 -124.89860535 526.08509064 C-134.4252858 526.09068737 -143.95193327 526.08920858 -153.47860992 526.07852915 C-158.3435802 526.07325609 -163.20849541 526.07124333 -168.07346535 526.07782745 C-172.52071197 526.08375542 -176.96785209 526.08056441 -181.41508895 526.06987235 C-183.03012702 526.06762484 -184.64517396 526.06880453 -186.2602064 526.07362393 C-188.44341013 526.07964267 -190.62624159 526.07353225 -192.80942535 526.06418228 C-194.02572459 526.06385758 -195.24202382 526.06353287 -196.49518061 526.06319833 C-199.3125 525.8125 -199.3125 525.8125 -201.3125 523.8125 C-201.84785996 520.53342028 -201.99386758 518.00235085 -200.29833984 515.04150391 C-199.83637207 514.40132324 -199.3744043 513.76114258 -198.8984375 513.1015625 C-195.93459153 508.81259452 -193.22600488 504.41655726 -190.5703125 499.93359375 C-190.15396545 499.23127121 -189.73761841 498.52894867 -189.30865479 497.80534363 C-188.01637404 495.62134347 -186.72687676 493.43571559 -185.4375 491.25 C-184.54970672 489.74921432 -183.66168766 488.24856219 -182.7734375 486.74804688 C-180.61718606 483.10439861 -178.46399621 479.45895797 -176.3125 475.8125 C-177.15236985 475.80753478 -177.15236985 475.80753478 -178.00920677 475.80246925 C-191.62102144 475.72131702 -205.23272254 475.62912397 -218.84438133 475.52497292 C-225.42683158 475.4749424 -232.00926524 475.42861309 -238.59179688 475.390625 C-244.93958441 475.35385741 -251.28723544 475.30752101 -257.63490677 475.25443649 C-260.06147501 475.23584708 -262.48807257 475.22075611 -264.9146843 475.20915604 C-268.30312959 475.19237123 -271.69125908 475.16335527 -275.07958984 475.13134766 C-276.09162979 475.12918747 -277.10366974 475.12702728 -278.14637756 475.12480164 C-279.06626968 475.11363815 -279.9861618 475.10247467 -280.93392944 475.0909729 C-281.73588934 475.08544214 -282.53784924 475.07991138 -283.36411095 475.07421303 C-285.3125 474.8125 -285.3125 474.8125 -287.3125 472.8125 C-287.97654971 467.0737125 -286.54813502 463.72629426 -283.375 459.125 C-282.45164919 457.71796487 -281.53131758 456.30894587 -280.61328125 454.8984375 C-280.09330566 454.1053418 -279.57333008 453.31224609 -279.03759766 452.49511719 C-275.98218737 447.7437942 -273.07754589 442.89989084 -270.15817261 438.06430054 C-268.68199593 435.61993155 -267.20157371 433.17814559 -265.72120667 430.73631287 C-264.98081813 429.51504012 -264.24061384 428.29365566 -263.50059509 427.07215881 C-260.11296111 421.4804878 -256.71390724 415.89580239 -253.3125 410.3125 C-248.13849909 401.81694593 -242.97359375 393.31589828 -237.8125 384.8125 C-230.88871385 373.40516258 -223.95488391 362.00397437 -217.01416016 350.60693359 C-214.11290563 345.84254919 -211.2127552 341.07749277 -208.3125 336.3125 C-204.84818058 330.62077431 -201.38367757 324.92916106 -197.91796875 319.23828125 C-191.5419557 308.76758092 -185.17341266 298.2923789 -178.8125 287.8125 C-171.88866944 276.40518949 -164.95488396 265.00397444 -158.01416016 253.60693359 C-155.11290563 248.84254919 -152.21276793 244.07748502 -149.3125 239.3125 C-148.14583849 237.39583019 -146.97917183 235.47916352 -145.8125 233.5625 C-145.235 232.61375 -144.6575 231.665 -144.0625 230.6875 C-138.81249999 222.06249999 -138.81249999 222.06249999 -137.06323242 219.1887207 C-135.8941037 217.26799759 -134.7249957 215.34726187 -133.5559082 213.42651367 C-130.67707885 208.69680808 -127.79791471 203.96730703 -124.91796875 199.23828125 C-118.5419557 188.76758092 -112.17341266 178.2923789 -105.8125 167.8125 C-98.88866944 156.40518949 -91.95488396 145.00397444 -85.01416016 133.60693359 C-82.11290563 128.84254919 -79.21276793 124.07748502 -76.3125 119.3125 C-75.14583849 117.39583019 -73.97917183 115.47916352 -72.8125 113.5625 C-72.235 112.61375 -71.6575 111.665 -71.0625 110.6875 C-65.81250001 102.06250001 -65.81250001 102.06250001 -64.06323242 99.1887207 C-62.8941037 97.26799759 -61.7249957 95.34726187 -60.5559082 93.42651367 C-57.67707885 88.69680808 -54.79791471 83.96730703 -51.91796875 79.23828125 C-46.26822486 69.96026147 -40.62268033 60.67971633 -34.98632812 51.39355469 C-33.54418282 49.01756119 -32.10145659 46.64192208 -30.65820312 44.26660156 C-27.18438427 38.5485966 -23.71637722 32.82727192 -20.26171875 27.09765625 C-19.30845703 25.52081055 -19.30845703 25.52081055 -18.3359375 23.91210938 C-17.14687135 21.94509037 -15.96049727 19.97644046 -14.77734375 18.00585938 C-12.17203894 13.70267995 -9.52789808 9.6946857 -6.3125 5.8125 C-5.879375 4.884375 -5.44625 3.95625 -5 3 C-3.3125 0.8125 -3.3125 0.8125 0 0 Z M-0.3125 23.8125 C-1.18188307 25.14453834 -1.99934378 26.51045678 -2.796875 27.88671875 C-3.31282227 28.77053223 -3.82876953 29.6543457 -4.36035156 30.56494141 C-5.20291504 32.01779541 -5.20291504 32.01779541 -6.0625 33.5 C-10.47319454 41.03706287 -14.94259468 48.52676509 -19.5625 55.9375 C-24.61515784 64.05167366 -29.60707974 72.20116587 -34.5625 80.375 C-34.91985229 80.9643634 -35.27720459 81.55372681 -35.64538574 82.16094971 C-37.47181358 85.17354131 -39.2975869 88.18652888 -41.12304688 91.19970703 C-44.3296317 96.49192618 -47.5419978 101.78063456 -50.75402832 107.06954956 C-52.52376513 109.98371686 -54.29311251 112.8981206 -56.0625 115.8125 C-56.77083148 116.97916779 -57.47916481 118.14583446 -58.1875 119.3125 C-58.538125 119.89 -58.88875 120.4675 -59.25 121.0625 C-79.43750007 154.31250012 -79.43750007 154.31250012 -80.49995422 156.06242371 C-81.20844121 157.22934404 -81.91692713 158.39626502 -82.62541199 159.56318665 C-84.39388578 162.47597747 -86.1623779 165.38875716 -87.9309082 168.30151367 C-91.14657389 173.59773261 -94.36209379 178.89403982 -97.57695007 184.19075012 C-106.24525854 198.47240692 -114.9212725 212.74933065 -123.61083984 227.01806641 C-126.51209437 231.78245081 -129.41223207 236.54751498 -132.3125 241.3125 C-133.47916151 243.22916981 -134.64582817 245.14583648 -135.8125 247.0625 C-136.39 248.01125 -136.9675 248.96 -137.5625 249.9375 C-142.8125 258.5625 -142.8125 258.5625 -144.56176758 261.4362793 C-145.7308963 263.35700241 -146.9000043 265.27773813 -148.0690918 267.19848633 C-150.94792115 271.92819192 -153.82708529 276.65769297 -156.70703125 281.38671875 C-163.0830443 291.85741908 -169.45158734 302.3326211 -175.8125 312.8125 C-182.73633056 324.21981051 -189.67011604 335.62102556 -196.61083984 347.01806641 C-199.51209437 351.78245081 -202.41223207 356.54751498 -205.3125 361.3125 C-206.47916151 363.22916981 -207.64582817 365.14583648 -208.8125 367.0625 C-209.39 368.01125 -209.9675 368.96 -210.5625 369.9375 C-215.81249999 378.56249999 -215.81249999 378.56249999 -217.56176758 381.4362793 C-218.7308963 383.35700241 -219.9000043 385.27773813 -221.0690918 387.19848633 C-223.94792115 391.92819192 -226.82708529 396.65769297 -229.70703125 401.38671875 C-230.84638598 403.25779313 -231.98570873 405.12888698 -233.125 407 C-233.69041504 407.9286084 -234.25583008 408.8572168 -234.83837891 409.81396484 C-238.12658558 415.21608414 -241.41086926 420.62056488 -244.69140625 426.02734375 C-245.25203514 426.95123146 -245.25203514 426.95123146 -245.82398987 427.89378357 C-247.642092 430.89003058 -249.45975334 433.88654333 -251.27661133 436.88354492 C-256.93512641 446.2108649 -256.93512641 446.2108649 -259.59863281 450.50292969 C-260.15648972 451.40318375 -260.15648972 451.40318375 -260.72561646 452.32162476 C-261.76453802 453.99604622 -262.80626236 455.66872771 -263.84814453 457.34130859 C-265.39746474 459.47713714 -265.39746474 459.47713714 -265.3125 460.8125 C-252.57821873 461.18394417 -239.84523379 461.46785907 -227.10663033 461.64149475 C-221.19055432 461.72485597 -215.27819442 461.83780011 -209.36425781 462.01953125 C-203.65156788 462.19397051 -197.9424393 462.28915556 -192.22729111 462.33053589 C-190.0523557 462.36000182 -187.8776063 462.41755549 -185.70419693 462.50418091 C-174.47110157 463.3480874 -174.47110157 463.3480874 -164.45524788 459.29178429 C-161.26117546 455.55453902 -159.18314263 451.41452463 -157.26218224 446.91777611 C-155.6887546 443.42976772 -153.64584673 440.23760006 -151.63671875 436.98828125 C-150.86820953 435.69311331 -150.10224479 434.39642915 -149.33984375 433.09765625 C-143.26125682 422.77509179 -137.16703747 412.46839411 -130.8125 402.3125 C-125.36387654 393.60016696 -120.10734782 384.78062253 -114.875 375.9375 C-107.70308679 363.81809087 -100.44945754 351.75383388 -93.10205078 339.73974609 C-89.76970522 334.28888344 -86.44464189 328.83360597 -83.125 323.375 C-82.77342834 322.79704681 -82.42185669 322.21909363 -82.05963135 321.62362671 C-75.7407014 311.22899595 -69.52990218 300.77194837 -63.33633423 290.30227661 C-58.088068 281.43444388 -52.76160071 272.62648025 -47.29711914 263.88964844 C-41.98687736 255.36332131 -36.89025964 246.71241009 -31.78274536 238.06381226 C-27.44795754 230.72599762 -23.09144598 223.40529833 -18.609375 216.15625 C-18.23758621 215.55491745 -17.86579742 214.9535849 -17.48274231 214.33403015 C-15.73287071 211.50824215 -13.97584924 208.68725851 -12.21166992 205.87036133 C-11.59396729 204.8780249 -10.97626465 203.88568848 -10.33984375 202.86328125 C-9.53148071 201.57417847 -9.53148071 201.57417847 -8.70678711 200.2590332 C-7.24152672 197.82365007 -7.24152672 197.82365007 -6.23754883 195.07641602 C-5.3125 192.8125 -5.3125 192.8125 -3.484375 191.5390625 C-1.13983594 190.75473828 0.97636306 190.40465914 3.4375 190.1875 C4.23671875 190.11273438 5.0359375 190.03796875 5.859375 189.9609375 C6.46265625 189.91195312 7.0659375 189.86296875 7.6875 189.8125 C7.94007568 190.50335693 8.19265137 191.19421387 8.45288086 191.90600586 C9.85818049 195.21430962 11.59605435 198.24212474 13.44140625 201.31640625 C13.81391006 201.943228 14.18641388 202.57004974 14.57020569 203.21586609 C15.79311717 205.27113329 17.02138517 207.32313792 18.25 209.375 C19.11068646 210.81793119 19.97119844 212.26096647 20.83154297 213.70410156 C29.03822376 227.45464496 37.35100433 241.14041266 45.6875 254.8125 C48.48135614 259.39450264 51.27360009 263.97747869 54.0625 268.5625 C54.40875427 269.13159088 54.75500854 269.70068176 55.11175537 270.28701782 C61.37436828 280.58655033 67.5271477 290.94956763 73.66448975 301.32409668 C78.91248 310.19147218 84.23868244 318.99897245 89.70288086 327.73535156 C94.59143964 335.58460835 99.29513786 343.53993224 104 351.5 C109.80850485 361.32712629 115.67379605 371.10908594 121.6875 380.8125 C127.61118803 390.37391904 133.39868556 400.007054 139.125 409.6875 C145.02964592 419.66535692 150.95207411 429.63138484 156.95730591 439.5491333 C157.68329533 440.74852436 158.40832181 441.94849893 159.1322937 443.14910889 C160.1347732 444.81079541 161.14152947 446.46989948 162.1484375 448.12890625 C162.71353027 449.06162354 163.27862305 449.99434082 163.86083984 450.95532227 C164.4636377 451.89819092 165.06643555 452.84105957 165.6875 453.8125 C166.00167531 454.40067001 166.31585062 454.98884003 166.63954639 455.59483337 C168.26395041 458.33900332 169.50717766 460.42641153 172.62733459 461.44702816 C175.04181988 461.6753095 177.367852 461.67882086 179.79223633 461.60717773 C180.70004852 461.60819992 181.60786072 461.60922211 182.54318237 461.61027527 C185.53650049 461.60540775 188.52674784 461.55100716 191.51953125 461.49609375 C193.59745111 461.48303456 195.67539255 461.4730719 197.75334167 461.46607971 C203.21686534 461.43937965 208.67908189 461.37063921 214.14208984 461.29315186 C219.71889564 461.2214854 225.29591311 461.18956086 230.87304688 461.15429688 C241.81177156 461.07927119 252.749527 460.95983253 263.6875 460.8125 C262.15997616 456.88173646 260.36699733 453.36055375 258.23046875 449.71875 C257.89160141 449.13969406 257.55273407 448.56063812 257.20359802 447.96403503 C256.09791766 446.07789659 254.98675909 444.19506089 253.875 442.3125 C253.09749014 440.99064325 252.31998366 439.6687845 251.54248047 438.34692383 C246.73217962 430.18631101 241.81827893 422.09833642 236.79052734 414.06958008 C231.72952325 405.95683578 226.86575114 397.73063143 222 389.5 C216.96339493 380.98133515 211.92723038 372.47300762 206.61254883 364.1237793 C201.97752568 356.78392088 197.60601122 349.28372222 193.1875 341.8125 C186.03214044 329.67347241 186.03214044 329.67347241 178.625 317.6875 C173.99494839 310.39066226 169.56182977 302.97764399 165.125 295.5625 C159.05421146 285.41695083 152.957213 275.28846484 146.8125 265.1875 C141.60792132 256.63055299 136.42607767 248.06080112 131.28369141 239.46630859 C126.94883651 232.22979091 122.56954193 225.0204883 118.1875 217.8125 C113.33198635 209.82570157 108.48677731 201.83327864 103.6875 193.8125 C98.98814125 185.96102344 94.25068878 178.13299177 89.5 170.3125 C89.13984802 169.71949097 88.77969604 169.12648193 88.40863037 168.51550293 C84.7859813 162.55094542 81.16093186 156.58786437 77.52877808 150.62908936 C75.78885012 147.77427048 74.05029236 144.9186193 72.3125 142.0625 C71.7955658 141.21298767 71.7955658 141.21298767 71.26818848 140.34631348 C64.93608615 129.93288405 58.71608702 119.45450665 52.5093689 108.96600342 C47.93612398 101.24085829 43.33964548 93.53932745 38.52807617 85.95947266 C34.25229908 79.19199032 30.17038235 72.30752004 26.0625 65.4375 C20.31055397 55.82491554 14.54066218 46.22397578 8.68756104 36.67254639 C7.63942301 34.96105121 6.59483246 33.24738517 5.55029297 31.53369141 C4.92396973 30.51452637 4.29764648 29.49536133 3.65234375 28.4453125 C3.1018335 27.54699707 2.55132324 26.64868164 1.98413086 25.72314453 C1.55624268 25.09263184 1.12835449 24.46211914 0.6875 23.8125 C0.3575 23.8125 0.0275 23.8125 -0.3125 23.8125 Z M1.6875 210.8125 C0.37611442 212.88058841 -0.87665194 214.95953067 -2.109375 217.07421875 C-2.49414001 217.72707352 -2.87890503 218.37992828 -3.27532959 219.05256653 C-4.10602176 220.46239079 -4.93516224 221.87313022 -5.76293945 223.28466797 C-7.94287929 227.00076304 -10.13503379 230.70962406 -12.328125 234.41796875 C-12.98035034 235.52125015 -12.98035034 235.52125015 -13.64575195 236.64682007 C-16.9630076 242.24756252 -20.35597776 247.79653067 -23.8125 253.3125 C-29.26175434 262.02442145 -34.51766403 270.8443975 -39.75 279.6875 C-46.92191321 291.80690913 -54.17554246 303.87116612 -61.52294922 315.88525391 C-64.85529482 321.33611663 -68.18033266 326.79140946 -71.5 332.25 C-71.85057465 332.8262915 -72.20114929 333.40258301 -72.56234741 333.99633789 C-78.95051384 344.50439949 -85.22881459 355.07604337 -91.49081421 365.65963745 C-96.03567524 373.33819922 -100.60893147 380.98831964 -105.3972168 388.51831055 C-110.37274154 396.40159577 -115.06289254 404.46059746 -119.80966187 412.48272705 C-126.23916248 423.34711126 -132.74249515 434.16134572 -139.33203125 444.9296875 C-140.32615125 446.55690669 -141.31963076 448.18451734 -142.3125 449.8125 C-142.87888184 450.74094727 -143.44526367 451.66939453 -144.02880859 452.62597656 C-144.85566162 453.99061035 -144.85566162 453.99061035 -145.69921875 455.3828125 C-146.20026123 456.20797363 -146.70130371 457.03313477 -147.2175293 457.88330078 C-148.39476871 459.58773352 -148.39476871 459.58773352 -148.3125 460.8125 C-138.65501573 461.04457896 -128.99849601 461.22206613 -119.33882809 461.33062172 C-114.85289213 461.3827348 -110.36886842 461.45336217 -105.8840332 461.56689453 C-101.55259617 461.67585277 -97.22299319 461.73540044 -92.89029121 461.76127243 C-91.24066856 461.77969851 -89.59114239 461.81568599 -87.94230461 461.86980057 C-78.77150525 462.42701091 -78.77150525 462.42701091 -70.80195618 458.68437195 C-68.98385336 456.12724043 -67.63183487 453.65344051 -66.3125 450.8125 C-65.3659534 449.24173793 -64.4059777 447.67889298 -63.42578125 446.12890625 C-62.48913426 444.54607363 -61.55562687 442.96137963 -60.625 441.375 C-56.67111058 434.7128052 -52.65365076 428.10211259 -48.5 421.5625 C-48.01023682 420.79115723 -47.52047363 420.01981445 -47.01586914 419.22509766 C-45.98963908 417.60917684 -44.96335187 415.99329231 -43.93701172 414.37744141 C-40.9613886 409.67923033 -38.01101892 404.96525367 -35.0625 400.25 C-34.13099121 398.76052856 -34.13099121 398.76052856 -33.18066406 397.2409668 C-29.77112973 391.77952697 -26.3802598 386.30709686 -23.01171875 380.8203125 C-22.65443695 380.23852737 -22.29715515 379.65674225 -21.92904663 379.05732727 C-20.20538589 376.24949465 -18.484316 373.44014031 -16.76660156 370.62866211 C-13.47359348 365.25440845 -10.1248755 359.94568281 -6.55883789 354.74780273 C-5.32062116 352.82511047 -4.29530383 350.87566857 -3.3125 348.8125 C3.23131869 348.44209517 3.23131869 348.44209517 5.26635742 350.09448242 C6.70362048 351.83198803 7.92309695 353.57323881 9.11328125 355.48828125 C9.57283203 356.22240234 10.03238281 356.95652344 10.50585938 357.71289062 C11.24545898 358.90688477 11.24545898 358.90688477 12 360.125 C13.07896666 361.8505484 14.15841301 363.57579692 15.23828125 365.30078125 C15.80240723 366.20393066 16.3665332 367.10708008 16.94775391 368.03759766 C19.83635419 372.64492726 22.76310881 377.22783801 25.6875 381.8125 C32.53701207 392.56489201 39.345966 403.34255753 46.14648438 414.12597656 C52.70050743 424.51703448 59.27569745 434.89421629 65.88037109 445.25317383 C66.43418457 446.12224365 66.98799805 446.99131348 67.55859375 447.88671875 C68.04255615 448.64557373 68.52651855 449.40442871 69.02514648 450.1862793 C70.6875 452.8125 70.6875 452.8125 71.38581848 454.87234497 C72.50914772 457.57524401 73.38834517 458.96785192 75.6875 460.8125 C81.45395304 461.98448981 87.16028684 461.74255353 93.01953125 461.59375 C94.73871731 461.57882206 96.45793749 461.56743764 98.1771698 461.55944824 C102.69410791 461.52895646 107.20897559 461.4504226 111.72509766 461.36181641 C116.33662912 461.27985887 120.94849646 461.24341584 125.56054688 461.203125 C134.60377245 461.11742256 143.64546382 460.98095401 152.6875 460.8125 C149.36401674 454.6666023 146.01760495 448.54731618 142.4375 442.546875 C142.06245331 441.91487183 141.68740662 441.28286865 141.30099487 440.63171387 C140.09867071 438.6073404 138.89328339 436.58481463 137.6875 434.5625 C136.83738381 433.13380009 135.98728641 431.705089 135.13720703 430.27636719 C128.65283875 419.38854225 122.08869148 408.55074844 115.47705078 397.73974609 C112.14470522 392.28888344 108.81964189 386.83360597 105.5 381.375 C104.97264252 380.50807022 104.97264252 380.50807022 104.43463135 379.62362671 C98.1157014 369.22899595 91.90490218 358.77194837 85.71133423 348.30227661 C80.463068 339.43444388 75.13660071 330.62648025 69.67211914 321.88964844 C64.78356036 314.04039165 60.07986214 306.08506776 55.375 298.125 C49.56649744 288.29787759 43.70136541 278.51581146 37.6875 268.8125 C30.75690806 257.62958473 24.01858039 246.33982967 17.33203125 235.00976562 C13.65045193 228.77418389 9.95289712 222.5487038 6.1875 216.36328125 C5.21296875 214.75900269 5.21296875 214.75900269 4.21875 213.12231445 C3.7134375 212.36007568 3.208125 211.59783691 2.6875 210.8125 C2.3575 210.8125 2.0275 210.8125 1.6875 210.8125 Z M0.6875 370.8125 C-6.52417739 381.78280587 -13.47625349 392.89775587 -20.3359375 404.09130859 C-24.28309557 410.52782509 -28.26281062 416.94003047 -32.3125 423.3125 C-37.27467824 431.12593684 -42.14827929 438.99270702 -47 446.875 C-47.35860107 447.45701172 -47.71720215 448.03902344 -48.08666992 448.63867188 C-49.10438879 450.29102907 -50.12058675 451.94432273 -51.13671875 453.59765625 C-52.01976685 455.03443726 -52.01976685 455.03443726 -52.9206543 456.50024414 C-54.30353718 458.72947477 -54.30353718 458.72947477 -55.3125 460.8125 C-18.0225 460.8125 19.2675 460.8125 57.6875 460.8125 C54.71268245 454.70402399 54.71268245 454.70402399 51.3125 448.98046875 C50.89121826 448.33762939 50.46993652 447.69479004 50.03588867 447.0324707 C49.59092041 446.36175537 49.14595215 445.69104004 48.6875 445 C47.70348505 443.49801258 46.72044687 441.99538487 45.73828125 440.4921875 C45.23377441 439.72100586 44.72926758 438.94982422 44.20947266 438.15527344 C41.72772087 434.33511141 39.30094727 430.48075407 36.875 426.625 C31.91436687 418.74877907 26.92578489 410.89081103 21.92114258 403.04248047 C19.02320051 398.49484149 16.13599776 393.94110258 13.2734375 389.37109375 C12.73203125 388.50806641 12.190625 387.64503906 11.6328125 386.75585938 C10.61715968 385.13510992 9.60396898 383.51281382 8.59375 381.88867188 C6.15538196 378.00037029 3.65447447 374.32968804 0.6875 370.8125 Z M-172.67612618 499.27669448 C-174.66190757 503.56748472 -177.01636869 507.67946363 -179.3125 511.8125 C-59.5225 511.8125 60.2675 511.8125 183.6875 511.8125 C179.7275 504.8825 179.7275 504.8825 175.6875 497.8125 C174.7741026 495.73646327 173.8607052 493.66042654 172.9196291 491.52147961 C167.94248546 480.59323925 167.94248546 480.59323925 158.69976783 473.48761582 C150.37376387 471.42647671 141.86063386 471.58459116 133.34257138 471.73253739 C129.47151385 471.77461546 125.60310289 471.68359863 121.7328186 471.61061096 C114.16628836 471.48951057 106.6047797 471.49244587 99.03763231 471.54197661 C92.8829786 471.58037641 86.72977415 471.57538743 80.5751133 471.54004478 C79.69657821 471.53507681 78.81804312 471.53010884 77.91288576 471.52499032 C76.12768127 471.51477427 74.34247718 471.50448882 72.55727348 471.49413475 C55.84392783 471.40283808 39.13339398 471.4559708 22.42025796 471.55646374 C8.10892164 471.63875039 -6.19684546 471.58586398 -20.50756836 471.43676758 C-37.15952738 471.26328222 -53.80799807 471.18288255 -70.46086758 471.24260443 C-72.24013321 471.24867226 -74.01939936 471.25458845 -75.798666 471.26035118 C-76.67389524 471.26319596 -77.54912448 471.26604073 -78.45087582 471.26897172 C-84.59017237 471.28233213 -90.72678384 471.22924407 -96.86550331 471.14905739 C-104.36119605 471.05257325 -111.84899767 471.05647403 -119.34432475 471.1856579 C-123.16488244 471.24893888 -126.97168409 471.26913645 -130.79166603 471.16520691 C-154.50180799 470.56722477 -163.48384894 478.52597469 -172.67612618 499.27669448 Z " fill="#E11C47" transform="translate(501.3125,213.1875)"/>
</svg>